Coordinates
version=1
nRows=26
nColumns=24
inDegrees=yes

Units are S.I. units (second, meters, Newtons, ...)
Angles are in degrees.

endheader
time	pelvis_tilt	pelvis_list	pelvis_rotation	pelvis_tx	pelvis_ty	pelvis_tz	hip_flexion_r	hip_adduction_r	hip_rotation_r	knee_angle_r	ankle_angle_r	subtalar_angle_r	mtp_angle_r	hip_flexion_l	hip_adduction_l	hip_rotation_l	knee_angle_l	ankle_angle_l	subtalar_angle_l	mtp_angle_l	lumbar_extension	lumbar_bending	lumbar_rotation
      0.55400000	      5.65770813	      4.58546924	      4.78400500	     -0.78471839	      1.00370032	      0.25028238	     16.69731856	     -6.01644345	    -11.31514981	      3.32384194	      1.92855001	     -5.74334433	     -0.46123998	    -21.89678206	      5.15247315	      0.25368648	     -5.51002298	     10.52605908	    -10.48805051	     -0.28451372	    -16.85653803	     -3.99629201	     -4.15479346
      0.55816667	      5.75817201	      4.49864055	      4.99363159	     -0.77867819	      1.00328048	      0.25010353	     16.62235116	     -5.96695168	    -11.31199376	      2.74837549	      1.76099256	     -6.20989529	     -0.56159843	    -22.16857866	      4.92615187	      0.47021761	     -5.89516248	     10.54404329	    -10.49906455	     -0.41424336	    -16.94063328	     -3.76364187	     -4.39970965
      0.56233333	      5.96343753	      4.36658386	      5.20173738	     -0.77255499	      1.00304690	      0.24994160	     16.40700137	     -5.85555000	    -11.36606681	      2.18392308	      1.57479257	     -6.64332669	     -0.65347148	    -22.54241274	      4.63418334	      0.62909938	     -6.29656331	     10.56649318	    -10.41831388	     -0.54041130	    -17.12960777	     -3.46509031	     -4.60877108
      0.56650000	      6.12479889	      4.24091313	      5.39337374	     -0.76636109	      1.00276837	      0.24984407	     16.23860673	     -5.74344592	    -11.41188239	      1.59404094	      1.36219697	     -7.08618693	     -0.70799209	    -22.86767614	      4.35478509	      0.79550574	     -6.70165259	     10.59320466	    -10.32312483	     -0.61836651	    -17.25957475	     -3.19193977	     -4.75776048
      0.57066667	      6.39987346	      4.07019838	      5.57371569	     -0.76012122	      1.00269352	      0.24978512	     15.90932310	     -5.56140090	    -11.47522580	      1.06735389	      1.04035363	     -7.53153031	     -0.77762355	    -23.28742684	      4.01190235	      0.85232978	     -7.15218067	     10.54714986	    -10.19663191	     -0.73897313	    -17.51184036	     -2.83979956	     -4.99804267
      0.57483333	      6.56882054	      3.93276104	      5.75749499	     -0.75385161	      1.00251378	      0.24975656	     15.69271695	     -5.41937958	    -11.52798486	      0.53248977	      0.61895008	     -8.00843315	     -0.81293736	    -23.57061880	      3.71357113	      0.95976696	     -7.64396147	     10.48578948	    -10.10172648	     -0.80782443	    -17.64108599	     -2.55037673	     -5.16632085
      0.57900000	      6.78566508	      3.77610655	      5.92685767	     -0.74754358	      1.00243328	      0.24978884	     15.40558445	     -5.24042023	    -11.58421438	      0.02948666	      0.15074533	     -8.50885786	     -0.82849222	    -23.88747107	      3.38902007	      1.02599308	     -8.16538138	     10.40693962	     -9.97604003	     -0.85360481	    -17.81946456	     -2.23781825	     -5.33038262
      0.58316667	      6.97892713	      3.62034454	      6.09033057	     -0.74120783	      1.00236087	      0.24986557	     15.13293754	     -5.05704929	    -11.64128139	     -0.45204663	     -0.39508823	     -9.02155754	     -0.82486474	    -24.15369576	      3.06692640	      1.07622673	     -8.73483252	     10.31040684	     -9.83944574	     -0.87191611	    -17.96612755	     -1.93008659	     -5.46828735
      0.58733333	      7.09435108	      3.49426674	      6.24644422	     -0.73486167	      1.00223201	      0.24995690	     14.94029592	     -4.91303428	    -11.70379793	     -0.91731852	     -1.07386739	     -9.44344084	     -0.81762802	    -24.30967694	      2.79010201	      1.15746114	     -9.35398180	     10.14988052	     -9.73556812	     -0.86743078	    -18.03360783	     -1.68454267	     -5.52538120
      0.59150000	      7.34209754	      3.29391054	      6.36389396	     -0.72840288	      1.00231281	      0.25016300	     14.57181976	     -4.64834419	    -11.73878503	     -1.30857823	     -1.78624047	    -10.07590409	     -0.78617094	    -24.60021814	      2.42508944	      1.09969135	     -9.97453408	      9.98908499	     -9.57299589	     -0.83484838	    -18.20943667	     -1.32775279	     -5.68991416
      0.59566667	      7.51962075	      3.11293348	      6.46707044	     -0.72196783	      1.00234678	      0.25043404	     14.27858456	     -4.40837945	    -11.76013538	     -1.68334028	     -2.56424948	    -10.59300111	     -0.74009396	    -24.76915229	      2.09276004	      1.03841515	    -10.68404111	      9.77703925	     -9.42069771	     -0.77578312	    -18.32944601	     -1.02141812	     -5.75924131
      0.59983333	      7.76246063	      2.91721263	      6.49814033	     -0.71551944	      1.00248637	      0.25088637	     13.91399011	     -4.11950983	    -11.70103357	     -2.02264086	     -3.42346346	    -11.12857247	     -0.64024385	    -24.99312743	      1.75464593	      0.85445860	    -11.41243375	      9.51187699	     -9.19352470	     -0.63373207	    -18.52613187	     -0.71974614	     -5.82321152
      0.60400000	      7.86222709	      2.73573097	      6.58769803	     -0.70901691	      1.00251741	      0.25117674	     13.69774923	     -3.88765901	    -11.74306917	     -2.37714198	     -4.28468434	    -11.62884130	     -0.57670124	    -25.02250711	      1.44170462	      0.79654676	    -12.21892620	      9.21858330	     -9.11821609	     -0.52216673	    -18.53809892	     -0.42402075	     -5.80841128
      0.60816667	      8.01151069	      2.53709723	      6.61857498	     -0.70251698	      1.00264985	      0.25162783	     13.42307043	     -3.61006360	    -11.71345109	     -2.69163215	     -5.21757454	    -12.15777152	     -0.50002413	    -25.07729968	      1.11964821	      0.64471385	    -13.06845365	      8.86588647	     -8.98929623	     -0.37432559	    -18.61368439	     -0.12590030	     -5.81245770
      0.61233333	      8.22887923	      2.31410421	      6.53049521	     -0.69601734	      1.00286264	      0.25236971	     13.10121178	     -3.26421991	    -11.55710241	     -3.01405535	     -6.16999575	    -12.72802861	     -0.33692731	    -25.18760068	      0.79287219	      0.29225347	    -13.94662739	      8.50025195	     -8.69373151	     -0.03858259	    -18.77825510	      0.15934281	     -5.75756557
      0.61650000	      8.33114365	      2.10641558	      6.47366808	     -0.68950233	      1.00299728	      0.25305165	     12.89374875	     -2.96100806	    -11.42486287	     -3.33286082	     -7.10011100	    -13.25613392	     -0.14472221	    -25.12523134	      0.49035928	      0.01523237	    -14.91618154	      8.05982273	     -8.53180811	      0.41394453	    -18.80043225	      0.41846847	     -5.65084440
      0.62066667	      8.46056004	      1.88020841	      6.40598650	     -0.68298415	      1.00321505	      0.25372739	     12.66131654	     -2.64130921	    -11.32412509	     -3.66320147	     -8.00290178	    -13.73518349	      0.05364307	    -25.05731082	      0.17036160	     -0.28410512	    -15.94102391	      7.58040552	     -8.37754304	      0.95087129	    -18.85283211	      0.70548191	     -5.51869478
      0.62483333	      8.53491621	      1.65895467	      6.30537246	     -0.67647015	      1.00340239	      0.25446763	     12.50458735	     -2.33122162	    -11.19227880	     -4.02501313	     -8.86563836	    -14.19577296	      0.26374713	    -24.89399990	     -0.12607522	     -0.59887666	    -17.02938059	      7.04491501	     -8.24474176	      1.60849951	    -18.84511861	      0.96826501	     -5.35495321
      0.62900000	      8.59094500	      1.41202504	      6.24963954	     -0.66992525	      1.00362674	      0.25501272	     12.36914174	     -2.02821095	    -11.18698520	     -4.42414310	     -9.59951133	    -14.49807636	      0.37774800	    -24.66889607	     -0.44898791	     -0.84476734	    -18.18684120	      6.46356340	     -8.27031645	      2.03277045	    -18.80646535	      1.30105016	     -5.17989115
      0.63316667	      8.64210467	      1.16858995	      6.05574098	     -0.66338441	      1.00382706	      0.25596711	     12.26063864	     -1.68616241	    -10.98254880	     -4.82777044	    -10.32017033	    -14.80172072	      2.56604902	    -24.40665714	     -0.75320754	     -1.32915196	    -19.39051131	      5.72078160	     -8.18881539	     11.78937766	    -18.76549705	      1.54113390	     -4.97683976
      0.63733333	      8.73375456	      0.93456019	      5.97193345	     -0.65692072	      1.00420321	      0.25658437	     12.08294108	     -1.39470172	    -10.94075158	     -5.22819274	    -10.95724058	    -15.01393019	      2.54792068	    -24.13772857	     -1.06606818	     -1.59875798	    -20.66826343	      5.00063905	     -8.24408372	     11.82592354	    -18.77786492	      1.83464280	     -4.80715140
      0.64150000	      8.80273239	      0.66140414	      5.78507035	     -0.65046646	      1.00451212	      0.25747190	     11.96816206	     -1.03506092	    -10.76996402	     -5.68281259	    -11.54906030	    -15.30584030	      2.52296303	    -23.81488481	     -1.40102478	     -2.01982573	    -22.00931210	      4.28418269	     -8.15627230	     11.93879864	    -18.78327804	      2.13787117	     -4.55928490
      0.64566667	      8.82633058	      0.39998561	      5.57546160	     -0.64402224	      1.00479250	      0.25840092	     11.90632022	     -0.69403147	    -10.57668626	     -6.16046577	    -12.02808205	    -15.49845027	      2.48986657	    -23.40018565	     -1.71838746	     -2.46176848	    -23.42206662	      3.49874454	     -8.11076370	     12.12353707	    -18.72736703	      2.40800919	     -4.27415371
      0.64983333	      8.89022630	      0.14913413	      5.44446560	     -0.63760288	      1.00522151	      0.25907775	     11.77955836	     -0.39993886	    -10.52739658	     -6.64152694	    -12.35708061	    -15.44250431	      2.47652720	    -22.99388421	     -2.04151028	     -2.75034537	    -24.85822718	      2.58255327	     -8.20405273	     12.19696661	    -18.72609368	      2.70196177	     -4.14072037
      0.65400000	      8.85024272	     -0.13857448	      5.13166998	     -0.63122182	      1.00539278	      0.26033754	     11.81732561	     -0.00338298	    -10.18004815	     -7.18010292	    -12.69155047	    -15.72977291	      2.41645175	    -22.43410287	     -2.38400598	     -3.32735955	    -26.41200593	      1.76965817	     -8.07920107	     12.55059456	    -18.61913972	      2.93764467	     -3.70028906
      0.65816667	      8.85621079	     -0.42461540	      4.93309490	     -0.62487657	      1.00571765	      0.26118547	     11.77147498	      0.33863272	    -10.05399821	     -7.69334547	    -12.94525867	    -15.69712403	      2.36340047	    -21.88046501	     -2.74142868	     -3.71044105	    -28.00943599	      0.91043287	     -8.21550515	     12.82788338	    -18.56103061	      3.24234432	     -3.43089230
